<?xml version="1.0" encoding="utf-8"?>
<!-- Generator: Adobe Illustrator 12.0.0, SVG Export Plug-In . SVG Version: 6.00 Build 51448)  -->
<!DOCTYPE svg PUBLIC "-//W3C//DTD SVG 1.1//EN" "http://www.w3.org/Graphics/SVG/1.1/DTD/svg11.dtd" >
<svg  version="1.1" id="Layer_1" xmlns="http://www.w3.org/2000/svg" xmlns:xlink="http://www.w3.org/1999/xlink" width="395.98" height="503.975"
	 viewBox="0 0 395.98 503.975" overflow="visible" enable-background="new 0 0 395.98 503.975" xml:space="preserve">
<g>
	<path fill-rule="evenodd" clip-rule="evenodd" fill="#231F20" d="M26.837,34.97c0,0,9.762-0.651,14.783-2.139
		c0,0,10.413-2.975,14.691-4.276c0,0,4.09-2.976,7.81-2.976c0,0,7.066-8.368,20.454-8.368c0,0,4.835-1.674,21.571,6.323
		c0,0,15.25,11.343,18.69,18.688c0,0,7.717,7.159,7.717,11.994c0,0,5.485,19.433,6.88,20.827l-2.789-1.302
		c0,0,4.277,31.985,3.347,53.556c0,0-3.347,41.839-4.836,46.861c0,0,0,13.016,0,17.107l-1.022-1.021c0,0,0,8.088,0,10.135
		l-1.766-1.489c0,0,1.302,13.947,2.417,19.527c0,0,20.083-0.933,41.097,5.39c0,0,27.894,10.229,32.729,11.345
		c4.837,1.114,24.918-0.559,43.888,14.132l-5.023-1.489l1.676,1.675c0,0,5.949,1.486,8.183,3.718c0,0,26.313-0.279,29.564,2.974
		l-0.835,0.839l17.2,3.998c0,0,22.129-6.138,33.285-15.249l1.861-1.859h9.298v6.324l-2.325,2.322l5.114-2.508
		c0,0,2.325,4.181-1.117,7.625l7.812,1.114c0,0,1.675,6.324,0,7.997c0,0,8.927,3.16,10.228,4.464c0,0-4.276,2.044-6.693,2.044
		c-2.418,0-3.721-1.301-3.721-1.301s-3.531,8.925-21.942,17.665c0,0-15.249,16.179-16.178,23.803c0,0,1.396,4,0.37,5.021
		c-1.021,1.024,8.741,8.741,6.138,11.343c-2.604,2.604,10.138,9.576,7.253,12.461l-3.16-1.303v2.603c0,0-5.766,0.742-7.252-2.417
		l0.186,3.16l-2.791-1.3c0,0-2.791,6.51,0,9.297l5.206,4.464v4.833l5.022,5.022l1.674,7.252c0,0,6.694,10.598,5.58,13.762
		c-1.117,3.161-2.979-2.048-11.159,0c0,0,9.671,8.554,11.345,11.9c0,0,15.897,5.485,18.036,7.624
		c2.139,2.138,14.411,11.158,14.411,14.411c0,0-2.324,2.884-8.087,1.395c0,0,5.949,8.554,5.949,10.788
		c0,0-8.181-11.718-10.784-11.718l-65.458-20.457l-1.859-1.858c0,0,1.021,6.046-1.303,8.367c0,0-0.372-8.367-4.091-10.411
		c0,0,3.626,8.832,1.859,10.602l-2.603-2.792v1.858c0,0-1.115,1.49-3.719-2.975c0,0-2.417-4.276-7.255-5.393
		c0,0-5.576,6.882-15.618,9.668c0,0,1.861,10.787-16.924,13.391c-4.325,2.114-8.764,4.028-13.237,5.809
		c-3.665,1.455-7.376,2.82-11.163,3.92c-1.923,0.561-9.455,1.167-9.813,3.288c-0.212,1.226,0.972,3.209,1.486,4.286
		c1.211,2.539,2.399,5.141,3.767,7.61c1.444,2.614,2.55,4.982,2.557,8c0.002,1.63-0.896,2.869-0.977,4.424
		c-0.038,0.751,0.98,3.183,0.051,3.949c-0.014,0.051-0.024,0.1-0.038,0.15c-1.839,0.307-2.546-1.132-4.063-1.595
		c-1.633-0.493-2.5,0.898-4.086,0.893c-1.875-0.01-1.389-1.398-3.161-1.685c-1.337-0.213-3.185,0.301-4.463,0.555
		c-2.937,0.584-5.898,1.187-8.928,1.672c-1.568,0.256-2.743,0.589-4.281,0.341c-1.604-0.258-2.227-1.116-3.911-0.71
		c-2.737,0.655-2.792,4.053-3.755,6.323c-1.316,3.099-1.473,7.401-4.407,9.526c-0.516,0.375-1.423,1.003-2.044,1.086
		c-0.648,0.087-1.47-0.593-2.02-0.346c-0.845,0.384-1.425,2.257-2.035,2.985c-1.042,1.242-2.084,1.847-3.579,2.511
		c-3.757,1.67-8.533,2.285-12.651,3.02c-4.365,0.781-8.759,1.536-13.012,2.419c-2.507,0.521-4.367,2.259-6.694,2.602
		c-1.314,0.195-2.573-0.223-3.766,0.329c-1.237,0.57-1.851,2.261-3.271,2.439c-0.08-0.68-0.57-1.342-0.606-2.023
		c-0.043-0.842,0.653-1.139,0.169-1.997c-0.507-0.896-2.606-1.425-3.498-1.86c-2.665-1.308-5.06-2.793-7.479-4.282
		c-2.308-1.419-5.472-1.564-7.96-1.711c-1.778-0.104-2.173,0.361-3.75,1.065c-0.676,0.301-1.261,0.192-1.87,0.558
		c-0.436,0.263-0.884,1.216-1.255,1.348c-1.678,0.587-0.781-1.753-0.413-2.977c0.405-1.348,0.793-2.718,1.896-3.723
		c2.102-1.911,5.73-2.28,8.369-2.788c1.38-0.266,2.832-0.316,4.089-1.116c0.957-0.608,1.738-1.508,2.804-2.182
		c2.245-1.416,5.516-1.019,8.358-1.161c6.261-0.314,12.245,0.363,18.414,0.743c2.914,0.175,6.009,0.81,8.932,0.384
		c0.977-0.145,3.223-0.465,4.046-1.169c1.135-0.977,0.6-2.439,0.924-3.716c0.517-2.036,2.708-2.119-0.475-3.535
		c-0.768-0.341-2.705-0.853-3.166-1.669c-1.496-2.658,3.77-4.322,5.402-5.122c2.36-1.163,4.717-1.732,6.788-3.441
		c4.224-3.486,5.844-9.589,7.256-14.646c0.741-2.646,1.157-5.15,1.157-7.994c0-2.827-0.078-4.647-2.644-6.09
		c-1.832-1.033-3.81-1.854-5.184-3.582c0.125-0.148,0.261-0.376,0.371-0.52c-2.765-0.682-5.734-2.48-7.37-4.913
		c-1.827-2.722-2.899-5.824-4.729-8.563c-2.046-3.057-3.496-6.688-4.618-10.182c-0.359-1.116-0.681-5.374-1.526-5.907
		c-0.799-0.504-2.517,0.52-3.309,0.661c-1.206,0.222-2.558,0.262-3.766,0.376c-4.453,0.418-8.092,0.353-12.417-0.841
		c-5.274-1.451-10.64-3.349-15.439-5.954c-5.352-2.902-10.615-7.021-14.868-11.391c-2.98-3.061-5.671-6.202-7.614-9.998
		c-1.276-2.495-2.851-6.061-4.984-7.896c-2.27-1.959-4.63-4.306-7.258-5.721c-3.636-1.957-6.056-4.877-9.339-7.259
		c-3.04-2.2-5.055-4.414-7.572-7.106c-2.373-2.535-4.903-4.564-6.747-7.578c-2.388-3.902-4.557-7.767-6.652-11.859
		c-3.937-7.696-7.709-16.787-9.717-25.151c-2.038-8.487-0.932-18.825,0.417-27.373c0.626-3.958,2.091-7.813,3.255-11.678
		c2.433-8.083,5.694-16.115,8.042-24.17c0.733-2.516,1.226-4.823,2.288-7.252c2.066-4.729,5.099-8.734,7.573-13.243
		c2.658-4.844,5.07-9.957,8.186-14.516c1.518-2.22,2.827-4.795,4.042-7.187c1.419-2.79,3.232-5.385,4.657-8.197
		c1.571-3.101,2.157-6.75,3.426-10.003c1.887-4.841,4.3-9.965,5.364-15.035c-0.41,0.36-0.718,0.276-1.104,0.458
		c1.147-3.617,2.429-6.927,2.992-10.751c0.532-3.615,0.534-7.492,0.856-11.133c-0.329,0.248-1.069,0.581-1.433,0.883
		c0.215-0.997,0.879-1.937,1.097-2.947c0.295-1.38,0.236-3.022,0.373-4.426c0.261-2.718-0.003-5.33-0.006-8.065
		c-0.101,0.285-0.679,0.663-1.092,0.923c1.739-1.102,1.477-4.268,1.297-5.877c-0.313-2.8,0.344-5.607,0.35-8.407
		c0.005-2.931-0.472-6.112-0.917-9.123c-0.947-6.421-4.447-10.905-10.382-13.42c-2.754-1.167-5.643-2.187-8.234-3.904
		c-2.305-1.53-4.248-4.036-6.085-6.09c-1.089-1.218-2.113-2.439-3.212-3.684c-0.458-0.52-0.855-1.039-1.152-1.679
		c-0.181-0.39-0.234-1.307-0.363-1.487c-2.072-2.864-6.206-2.078-7.731-5.615c-0.552-1.277-0.374-2.744-1.203-3.859
		c-0.729-0.976-2.189-1.552-3.162-2.231c-1.172-0.818-2.15-1.84-3.353-2.604c-2.135-1.357-4.633-2.406-7.057-2.794
		c-3.244-0.521-5.315-0.055-8.15-1.859c-1.674-1.065-3.202-2.208-5.135-2.47c-0.935-0.127-1.345,0.693-1.87-0.271
		c-0.292-0.532,0.591-2.09,0.788-2.576C19.991,37.947,22.804,35.676,26.837,34.97z M90.528,35.62
		c1.289-0.065,3.716-0.126,4.371-1.526c0.769-1.644-1.56-4.048-2.945-4.567c-2.836-1.061-8.918,2.283-5.658,5.5
		C87.656,36.368,88.778,35.709,90.528,35.62z"/>
	<path fill-rule="evenodd" clip-rule="evenodd" fill="#231F20" d="M90.898,31.529c-1.255-0.464-2.823,1.375-1.074,2.004
		c1.035,0.374,2.947-1.342,1.261-1.818"/>
	<path fill-rule="evenodd" clip-rule="evenodd" fill="#FFFFFF" d="M53.184,58.521c-1.991,0.103-3.646,0.026-5.284-1.154
		c-1.701-1.226-2.845-2.905-4.328-4.359c-2.702-2.651-6.496-4.526-10.072-5.045c-1.999-0.29-4.116-0.285-6.076-0.751
		c-1.679-0.399-2.893-1.216-4.328-2.079c0.837-0.13,1.656-0.43,2.47-0.551c3.921-0.583,7.431,0.295,11.283,0.426
		c3.542,0.12,6.941-0.271,10.441,0.744c0.999,0.29,1.958,0.43,2.952,0.685c1.531,0.396,3.101,1.031,4.553,1.546
		c2.724,0.967,5.859,2.633,8.696,1.489c-4.342,0.727-7.683-2.392-11.517-3.751c-1.677-0.596-3.485-1.039-5.21-1.36
		c-1.974-0.369-4.028-0.619-6.074-0.62c-3.42,0-6.893-0.026-10.29-0.37c-1.895-0.191-4.055-0.02-5.978,0.094
		c-2.01,0.119-6.27,1.87-5.042-1.704c0.89-2.586,3.699-4.409,6.192-5.203c3.525-1.126,7.509-1.344,11.156-1.984
		c2.836-0.497,5.719-1.331,8.546-2.145c2.645-0.762,5.424-0.962,7.97-1.989c2.931-1.183,5.872-2.381,8.896-3.309
		c1.697-0.521,3.029-1.984,4.737-2.452c1.052-0.287,3.837-0.242,5.031,0.24c0.449,2.029-2.312,3.22-3.359,4.409
		c-1.326,1.508-0.036,3.731-0.587,5.486c-0.266,0.85-0.958,1.647-1.242,2.473c-0.335,0.97-0.545,2.021-0.869,2.976
		c-0.62,1.831-1.006,3.894-0.62,5.835c0.374,1.868,2.072,2.896,0.593,4.553c-1.132,1.265-2.94,2.189-3.843,3.623
		c-1.091,1.731-0.454,3.706-2.972,4.315C57.075,59.057,55.028,58.423,53.184,58.521z M48.255,34.689
		c-0.975,0.317-2.105-0.154-3.08,0.287c-1.308,0.594-0.424,1.246-1.352,2.104c-0.792,0.73-2.389,0.647-3.337,1.211
		c1.392,0.052,2.784-0.325,4.102-0.731c1.172-0.361,2.359-0.353,3.505-0.737c0.927-0.309,4.321-2.106,2.019-2.883
		C49.164,33.621,48.88,34.486,48.255,34.689z"/>
	<path fill-rule="evenodd" clip-rule="evenodd" fill="#FFFFFF" d="M151.323,474.439c0.036-0.03,0.181-0.119,0.19-0.126
		c-1.065-0.02-1.913,0.524-2.918,0.723c-1.148,0.226-2.335,0.235-3.49,0.442c-1.383,0.25-2.91,0.148-4.245,0.489
		c0.61-0.345,1.42-0.316,1.929-0.838c-0.754-0.672-2.19-0.55-3.127-0.664c-1.257-0.152-2.517-0.304-3.783-0.365
		c-1.618-0.081-3.225-0.288-4.835-0.373c-0.731-0.035-9.24-0.751-8.979,0.647c-0.066-0.352-0.017-0.764,0.063-1.092
		c-0.514-0.081-1.423-0.015-1.851,0.264c-0.509,0.324-0.483,0.819-0.816,1.201c-0.1-0.844-0.059-1.313-1.156-1.271
		c-0.769,0.028-1.199,0.658-1.633,1.178c-0.077-0.404,0.038-0.826,0.319-1.112c-0.394-0.035-3.882,0.405-3.603,1.12
		c0.146,0.373,0.452,0.696,0.742,0.909c-1.032,0.437-2.118,0.982-3.121,1.516c2.727-0.328,5.521-0.386,8.246-0.659
		c1.331-0.13,2.726-0.272,4.092-0.185c1.267,0.081,2.483,0.682,3.783,0.651c-1.523,0.034-3.275,0.533-4.787,0.008
		c-0.038,0.847-0.25,2.005-0.676,2.75c0.014-0.81-0.111-1.593-0.104-2.374c-0.597,0.081-1.668,0.253-2.299,0.192
		c0.258,0.755-0.047,1.656-0.198,2.413c-0.424-0.446,0.159-2.082-0.434-2.551c-0.736-0.583-2.072,0.383-2.804,0.042
		c-0.047,0.939-0.037,1.776-0.223,2.673c-0.406-0.647,0.093-2.118-0.532-2.6c-0.645-0.491-2.265,0.071-2.969,0.118
		c0.284,0.637,0.345,2.145,0.084,2.782c-0.291-0.597-0.336-1.784-0.858-2.315c-0.793-0.813-1.583,0.147-2.404-0.079
		c0.021,0.876,0.031,1.682-0.296,2.465c-0.341-0.556-0.189-1.633-0.364-2.297c-0.589-0.091-1.212,0.183-1.734,0.369
		c-0.041,0.719,0.127,1.62-0.273,2.212c-0.053-0.718-0.115-1.433-0.129-2.12c-0.892-0.041-1.721,0.15-2.555,0.256
		c-0.031,0.499,0.086,1.41-0.133,1.928c0.08-0.613-0.02-1.563-0.555-1.82c-0.801-0.398-1.835,0.124-2.091,0.9
		c-0.292,0.892-0.442,1.358-1.168,2.129c-0.106,0.112-1.61,1.693-1.185,1.878c0.812,0.351,2.343-0.339,3.147-0.54
		c1.181-0.297,2.134-0.256,3.331-0.359c0.025,0.085,0.003,0.162,0.028,0.248c1.163,0.068,2.334-0.082,3.39,0.488
		c-0.208-0.26-0.224-0.515-0.228-0.83c2.059-0.337,4.23-0.014,6.301-0.087c-1.391,0.858-3.521,0.032-5.007,1.073
		c1.216,0.019,2.832,1.511,3.991,1.973c1.944,0.77,6.524,5.238,7.927,2.068c0.554-1.254,1.101-2.048,2.281-2.829
		c2.125-1.416,4.55-2.31,7.054-2.78c2.489-0.471,5.021-0.14,7.47-0.527c0.748-0.118,1.462-0.442,2.199-0.585
		c-0.299,0.435-0.675,0.922-1.261,0.86c0.509,0.532,1.1,1.184,1.019,1.993c-0.381-0.572-0.583-1.319-1.234-1.617
		c-0.638-0.295-1.689-0.191-2.391-0.321c1.136-0.04,1.342,2.454,1.275,3.361c-0.291-1.094-0.897-2.428-2.119-2.896
		c-1.093-0.422-2.161,0.301-3.314,0.199c0.814,0.514,2.425,1.646,2.366,2.693c-0.827-0.737-1.379-1.628-2.494-2.151
		c-0.681-0.325-2.612-0.323-3.244,0.185c0.888,0.437,2.603,1.224,2.858,2.242c-1.157-1.534-3.761-2.553-5.462-1.213
		c1.062-0.024,3.339,1.13,3.812,2.122c-0.88-0.902-1.653-1.504-2.89-1.64c-2.689-0.288-3.862,0.944-5.045,3.229
		c-0.521,1.001-0.434,2.533,0.871,1.366c0.884-0.789,1.573-2.317,2.96-2.462c1.048-0.107,1.245,0.771,1.34,1.611
		c0.051,0.451,0.139,1.078,0.071,1.522c-0.094,0.613-0.693,1.238-0.368,1.877c1.394-0.117,2.837,0.069,4.19-0.61
		c1.464-0.735,1.494-1.835,2.216-3.102c-0.004-0.068-0.008-0.068-0.011,0c0.247,0.438,0.428,0.899,0.485,1.391
		c2.34-0.39,4.72-0.566,7.125-0.913c1.048-0.148,2.403-0.207,3.372-0.654c1.22-0.563,1.274-1.554,1.924-2.504
		c0.248,0.964,0.099,1.307,1.045,1.389c0.713,0.059,1.609-0.11,2.327-0.184c1.637-0.162,3.074-0.509,4.648-0.819
		c1.458-0.288,2.868-0.631,4.278-1.041c1.449-0.418,2.971-0.717,4.178-1.683c0.692-0.552,1.056-1.171,1.465-1.903
		c0.426-0.764,1.151-1.24,1.608-1.991c0.305-0.495,0.494-1.329,1.114-1.493c0.555-0.146,1.235,0.306,1.842,0.209
		c0.557-0.088,1.208-0.305,1.765-0.69c2.451-1.711,3.434-4.644,3.834-7.422c0.431-3.005,1.348-5.913,1.667-8.925
		c0.149-1.421,0.857-2.776,1.271-4.136c0.496-1.632,0.88-3.292,1.131-4.975c0.464-3.095,0.438-6.139,1.325-9.11
		c0.293-0.983,0.67-2.139,1.484-2.903c0.38-0.359,1.058-0.469,1.372-0.841c0.297-0.353,0.441-1.171,0.503-1.634
		c0.839-0.17,0.831-0.105,0.915-0.947c0.059-0.603-0.044-1.21-0.098-1.786c-0.073-0.781-0.583-2.823-0.257-3.515
		c0.165-0.35,0.906-0.583,1.212-0.924c0.319-0.354,0.693-0.936,0.884-1.327c0.395-0.806,0.857-2.096,0.405-2.937
		c1.875,0.244-0.707-3.75-1.11-4.19c0.492,0.872,0.82,3.304-0.757,2.967c-0.818-0.179-1.671-0.998-2.394-1.398
		c-0.594-0.326-1.715-0.619-1.943-1.295c1.308,1.346,2.714,3.45,2.555,5.372c-0.816,0.055-2.172-1.224-2.845-1.658
		c-0.975-0.633-1.923-1.4-2.833-2.116c-0.642-0.508-1.054-0.948-1.819-1.256c-0.748-0.303-1.3-0.654-1.956-1.153
		c-0.095,1.069,2.251,3.755,0.448,3.874c-1.422,0.094-3.304-1.167-2.58,1.116c0.741,2.336,0.667,5.372,0.42,7.806
		c-0.283,2.827-0.669,5.653-1.404,8.403c-0.612,2.287-1.687,4.229-2.664,6.385c-0.732,1.609-1.398,3.241-2.272,4.783
		c-0.531,0.934-1.175,2.488-1.929,3.217c0.236,0.177,1.066,1.242,1.211,1.282c-0.592-0.166-1.128-0.651-1.641-0.998
		c-0.127,0.796-1.609,3.251-2.406,3.17c0.785,0.41,2.408,1.311,2.559,2.295c-0.483-0.333-1.647-1.576-2.31-1.479
		c-0.513,0.073-1.965,1.839-2.286,2.328c0.487,0.721,1.367,1.024,1.879,1.773c-0.701-0.452-1.331-1.112-2.081-1.485
		c-0.737,1.09-1.629,2.068-2.528,2.993c0.676,0.44,1.516,1.222,2.048,1.888c-0.6-0.525-1.343-1.157-2.038-1.438
		c-0.046,0.077-0.008,0.166-0.032,0.251c-0.49,0.213-0.84,1.281-1.088,1.762c0.907,0.416,1.84,1.159,2.466,1.98
		c-0.664-0.102-1.159-0.704-1.827-0.772c-1.152-0.12-0.641,1.493-1.177,2.208C153.364,473.569,152.067,473.774,151.323,474.439z"/>
	<path fill-rule="evenodd" clip-rule="evenodd" fill="#FFFFFF" d="M206.742,441.372c0.045-0.962-0.62-2.019-0.97-2.859
		c-0.159-0.39-1.414-4.588-1.44-4.58c-0.619,0.196-3.016,0.518-2.894,1.295c-0.929,0.004-1.642-1.146-2.575-0.81
		c0.04,0.262-0.051,0.49,0.068,0.729c-0.857,0.772-5.237-0.93-6.299-1.383c-0.082,0.451-0.013,0.952,0.255,1.281
		c-1.245-0.813-2.998-1.553-4.454-1.843c-1.305-0.262-2.613-0.116-3.961-0.386c0.44,0.712,0.603,1.593,0.608,2.419
		c0.002,0.357,0.022,0.781-0.118,1.116c-0.055,0.136-0.511,0.629-0.509,0.672c0.051,1.707-1.69,2.304-2.601,3.537
		c-0.76,1.027-1.731,3.095-1.115,4.335c1.394-0.924,2.342-2.658,3.78-3.507c-0.328,0.19-0.551,1.191-0.719,1.546
		c0.908,1.02,2.215,1.673,3.241,2.541c0.144-0.233,0.318-0.399,0.299-0.74c0.61,0.247,0.229,0.982,0.151,1.465
		c-0.663,0.069-2.342-1.696-2.934-2.151c-1.14-0.868-1.711-0.436-2.36,0.77c1,1.145,2.469,1.912,3.342,3.239
		c-0.639-0.333-1.095-1.015-1.657-1.447c-0.646-0.497-1.443-0.924-2.139-1.338c-0.429,0.388-0.943,0.711-1.218,1.218
		c1.001,0.851,3.343,2.362,3.734,3.688c-1.033-1.06-2.858-2.784-4.363-2.926c-0.343,1.262-0.337,1.606,0.612,2.494
		c0.607,0.567,1.345,1.252,1.687,2.017c-0.698-0.909-1.724-2.206-2.918-2.376c-0.157,0.925,0.206,1.926,0.053,2.878
		c-0.202,1.231-0.578,2.579-0.934,3.805c-0.67,2.302-1.802,4.566-1.657,7.057c-0.035-0.585,2.797-1.654,3.329-1.646
		c0.402,0.011,0.716,0.372,0.904,0.38c0.829,0.028,0.885-0.606,1.398-1.145c0.979-1.022,2.491-1.698,3.552-2.716
		c2.297-2.193,4.353-4.706,6.168-7.302c0.345-0.497,0.915-1.136,1.077-1.68c-0.286-0.022-0.35-0.199-0.558-0.293
		c0.513-0.653,0.955-0.966,1.2-1.768c0.249-0.806,0.468-1.688,0.741-2.53c0.671-2.086,1.921-4.143,4.29-4.148
		c-0.146,0.508-1,0.862-1.402,1.287c-0.618,0.646-1.215,1.438-1.636,2.23c-0.478,0.906-0.775,1.975-0.857,2.979
		c-0.055,0.743,0.142,1.488-0.206,2.108c-0.8,1.421-2.333,2.452-3.301,3.747c-1.128,1.501-2.434,2.811-3.719,4.202
		c-0.925,1.001-1.908,1.937-2.838,2.929c-0.698,0.749-1.653,1.973-2.568,2.178c-0.261,0.061,0.672,0.627,0.729,0.646
		c0.775,0.252,1.977-0.096,2.758-0.22c1.274-0.198,2.581-0.284,3.847-0.535c1.405-0.274,2.825-0.548,4.277-0.762
		c1.489-0.217,2.99-0.727,4.469-1.092c0.634-0.154,1.312-0.442,1.967-0.631c0.22-0.064,2.023-0.326,2.052-0.288
		c0.019,0,0.034,0,0.051,0c-0.081,0.327-0.292,0.623-0.507,0.922c0.148,0.02,0.248,0.093,0.415,0.101
		c0.339,0.897,1.005,1.468,1.895,1.638c1.327,0.263,1.46-0.874,2.475-1.105c-0.08-1.534-7.201-9.378-5.189-10.764
		c0.73,1.392,1.057,2.888,1.882,4.245c0.352,0.584,0.699,1.128,1.069,1.7c0.454,0.702,0.844,1.381,1.35,2.036
		c0.445,0.578,0.634,1.282,1.081,1.881c0.527,0.704,1.355,0.734,1.937,1.34c0.005-1.005,0.37-1.999,0.862-2.863
		c0.263-0.461,1.753-1.961,1.786-0.546c0.906-1.462,2.029-4.236-0.041-5.272c-1.664-0.835-3.426,0.439-4.726,1.341
		c0.242-0.919,2.034-1.69,2.887-1.83c1.234-0.199,2.808,0.923,1.972-0.946c-0.566-1.266-0.857-1.918-2.438-1.836
		c-1.402,0.068-2.122,0.732-3.242,1.359c0.912-1.102,3.289-2.547,4.696-1.725c-0.873-0.745-0.799-2.434-1.912-2.805
		c-1.29-0.427-2.993,0.446-3.826,1.363c1.111-1.079,2.637-1.743,4.176-1.368c-0.192-0.637-1.048-1.611-1.451-2.24
		c-0.731-1.139-1.834-0.485-2.769-0.024c0.298-0.958,1.732-0.9,1.887-2.141C206.736,441.468,206.74,441.421,206.742,441.372z"/>
	<path fill-rule="evenodd" clip-rule="evenodd" fill="#FFFFFF" d="M158.305,458.462c-0.994,0.638-2.279,1.303-3.43,1.583
		c1.986,0.523-0.968,2.612-1.661,3.021c-2.004,1.191,0.509,1.814,1.708,2.285c-0.028-0.048-0.043-0.099-0.043-0.156
		c0.747-0.038,1.056-1.006,1.474-1.521c0.809-1.005,1.69-1.965,2.509-2.957c0.864-1.047,1.934-2.37,2.412-3.612
		C160.355,457.046,159.06,457.979,158.305,458.462z"/>
</g>
</svg>
