<?xml version="1.0" encoding="utf-8"?>
<!-- Generator: Adobe Illustrator 23.0.3, SVG Export Plug-In . SVG Version: 6.00 Build 0)  -->
<svg version="1.1" id="Layer_1" xmlns="http://www.w3.org/2000/svg" xmlns:xlink="http://www.w3.org/1999/xlink" x="0px" y="0px"
	 viewBox="0 0 396 504" style="enable-background:new 0 0 396 504;" xml:space="preserve">
<style type="text/css">
	.st0{fill-rule:evenodd;clip-rule:evenodd;stroke:#FFFFFF;stroke-miterlimit:10;}
	.st1{fill-rule:evenodd;clip-rule:evenodd;}
	.st2{fill-rule:evenodd;clip-rule:evenodd;fill:#FFFFFF;}
	.st3{fill-rule:evenodd;clip-rule:evenodd;fill:#DDA322;}
	.st4{fill-rule:evenodd;clip-rule:evenodd;fill:#383838;}
</style>
<path class="st0" d="M90.5,35.6c1.3-0.1,3.7-0.1,4.4-1.5c0.8-1.6-1.6-4-2.9-4.6c-2.8-1.1-8.9,2.3-5.7,5.5
	C87.7,36.4,88.8,35.7,90.5,35.6z"/>
<g>
	<path class="st1" d="M26.8,35c0,0,9.8-0.7,14.8-2.1c0,0,10.4-3,14.7-4.3c0,0,4.1-3,7.8-3c0,0,7.1-8.4,20.5-8.4
		c0,0,4.8-1.7,21.6,6.3c0,0,15.2,11.3,18.7,18.7c0,0,7.7,7.2,7.7,12c0,0,5.5,19.4,6.9,20.8l-2.8-1.3c0,0,4.3,32,3.3,53.6
		c0,0-3.3,41.8-4.8,46.9c0,0,0,13,0,17.1l-1-1c0,0,0,8.1,0,10.1l-1.8-1.5c0,0,1.3,13.9,2.4,19.5c0,0,20.1-0.9,41.1,5.4
		c0,0,27.9,10.2,32.7,11.3c4.8,1.1,24.9-0.6,43.9,14.1l-5-1.5l1.7,1.7c0,0,5.9,1.5,8.2,3.7c0,0,26.3-0.3,29.6,3l-0.8,0.8l17.2,4
		c0,0,22.1-6.1,33.3-15.2l1.9-1.9h9.3v6.3l-2.3,2.3l5.1-2.5c0,0,2.3,4.2-1.1,7.6l7.8,1.1c0,0,1.7,6.3,0,8c0,0,8.9,3.2,10.2,4.5
		c0,0-4.3,2-6.7,2c-2.4,0-3.7-1.3-3.7-1.3s-3.5,8.9-21.9,17.7c0,0-15.2,16.2-16.2,23.8c0,0,1.4,4,0.4,5c-1,1,8.7,8.7,6.1,11.3
		c-2.6,2.6,10.1,9.6,7.3,12.5l-3.2-1.3v2.6c0,0-5.8,0.7-7.3-2.4l0.2,3.2l-2.8-1.3c0,0-2.8,6.5,0,9.3l5.2,4.5v4.8l5,5l1.7,7.3
		c0,0,6.7,10.6,5.6,13.8c-1.1,3.2-3-2-11.2,0c0,0,9.7,8.6,11.3,11.9c0,0,15.9,5.5,18,7.6c2.1,2.1,14.4,11.2,14.4,14.4
		c0,0-2.3,2.9-8.1,1.4c0,0,5.9,8.6,5.9,10.8c0,0-8.2-11.7-10.8-11.7l-65.5-20.5l-1.9-1.9c0,0,1,6-1.3,8.4c0,0-0.4-8.4-4.1-10.4
		c0,0,3.6,8.8,1.9,10.6l-2.6-2.8v1.9c0,0-1.1,1.5-3.7-3c0,0-2.4-4.3-7.3-5.4c0,0-5.6,6.9-15.6,9.7c0,0,1.9,10.8-16.9,13.4
		c-4.3,2.1-8.8,4-13.2,5.8c-3.7,1.5-7.4,2.8-11.2,3.9c-1.9,0.6-9.5,1.2-9.8,3.3c-0.2,1.2,1,3.2,1.5,4.3c1.2,2.5,2.4,5.1,3.8,7.6
		c1.4,2.6,2.6,5,2.6,8c0,1.6-0.9,2.9-1,4.4c0,0.8,1,3.2,0.1,3.9c0,0.1,0,0.1,0,0.1c-1.8,0.3-2.5-1.1-4.1-1.6
		c-1.6-0.5-2.5,0.9-4.1,0.9c-1.9,0-1.4-1.4-3.2-1.7c-1.3-0.2-3.2,0.3-4.5,0.6c-2.9,0.6-5.9,1.2-8.9,1.7c-1.6,0.3-2.7,0.6-4.3,0.3
		c-1.6-0.3-2.2-1.1-3.9-0.7c-2.7,0.7-2.8,4.1-3.8,6.3c-1.3,3.1-1.5,7.4-4.4,9.5c-0.5,0.4-1.4,1-2,1.1c-0.6,0.1-1.5-0.6-2-0.3
		c-0.8,0.4-1.4,2.3-2,3c-1,1.2-2.1,1.8-3.6,2.5c-3.8,1.7-8.5,2.3-12.7,3c-4.4,0.8-8.8,1.5-13,2.4c-2.5,0.5-4.4,2.3-6.7,2.6
		c-1.3,0.2-2.6-0.2-3.8,0.3c-1.2,0.6-1.9,2.3-3.3,2.4c-0.1-0.7-0.6-1.3-0.6-2c0-0.8,0.7-1.1,0.2-2c-0.5-0.9-2.6-1.4-3.5-1.9
		c-2.7-1.3-5.1-2.8-7.5-4.3c-2.3-1.4-5.5-1.6-8-1.7c-1.8-0.1-2.2,0.4-3.8,1.1c-0.7,0.3-1.3,0.2-1.9,0.6c-0.4,0.3-0.9,1.2-1.3,1.3
		c-1.7,0.6-0.8-1.8-0.4-3c0.4-1.3,0.8-2.7,1.9-3.7c2.1-1.9,5.7-2.3,8.4-2.8c1.4-0.3,2.8-0.3,4.1-1.1c1-0.6,1.7-1.5,2.8-2.2
		c2.2-1.4,5.5-1,8.4-1.2c6.3-0.3,12.2,0.4,18.4,0.7c2.9,0.2,6,0.8,8.9,0.4c1-0.1,3.2-0.5,4-1.2c1.1-1,0.6-2.4,0.9-3.7
		c0.5-2,2.7-2.1-0.5-3.5c-0.8-0.3-2.7-0.9-3.2-1.7c-1.5-2.7,3.8-4.3,5.4-5.1c2.4-1.2,4.7-1.7,6.8-3.4c4.2-3.5,5.8-9.6,7.3-14.6
		c0.7-2.6,1.2-5.1,1.2-8c0-2.8-0.1-4.6-2.6-6.1c-1.8-1-3.8-1.9-5.2-3.6c0.1-0.1,0.3-0.4,0.4-0.5c-2.8-0.7-5.7-2.5-7.4-4.9
		c-1.8-2.7-2.9-5.8-4.7-8.6c-2-3.1-3.5-6.7-4.6-10.2c-0.4-1.1-0.7-5.4-1.5-5.9c-0.8-0.5-2.5,0.5-3.3,0.7c-1.2,0.2-2.6,0.3-3.8,0.4
		c-4.5,0.4-8.1,0.4-12.4-0.8c-5.3-1.5-10.6-3.3-15.4-6c-5.4-2.9-10.6-7-14.9-11.4c-3-3.1-5.7-6.2-7.6-10c-1.3-2.5-2.9-6.1-5-7.9
		c-2.3-2-4.6-4.3-7.3-5.7c-3.6-2-6.1-4.9-9.3-7.3c-3-2.2-5.1-4.4-7.6-7.1c-2.4-2.5-4.9-4.6-6.7-7.6c-2.4-3.9-4.6-7.8-6.7-11.9
		c-3.9-7.7-7.7-16.8-9.7-25.2c-2-8.5-0.9-18.8,0.4-27.4c0.6-4,2.1-7.8,3.3-11.7c2.4-8.1,5.7-16.1,8-24.2c0.7-2.5,1.2-4.8,2.3-7.3
		c2.1-4.7,5.1-8.7,7.6-13.2c2.7-4.8,5.1-10,8.2-14.5c1.5-2.2,2.8-4.8,4-7.2c1.4-2.8,3.2-5.4,4.7-8.2c1.6-3.1,2.2-6.8,3.4-10
		c1.9-4.8,4.3-10,5.4-15c-0.4,0.4-0.7,0.3-1.1,0.5c1.1-3.6,2.4-6.9,3-10.8c0.5-3.6,0.5-7.5,0.9-11.1c-0.3,0.2-1.1,0.6-1.4,0.9
		c0.2-1,0.9-1.9,1.1-2.9c0.3-1.4,0.2-3,0.4-4.4c0.3-2.7,0-5.3,0-8.1c-0.1,0.3-0.7,0.7-1.1,0.9c1.7-1.1,1.5-4.3,1.3-5.9
		c-0.3-2.8,0.3-5.6,0.3-8.4c0-2.9-0.5-6.1-0.9-9.1c-0.9-6.4-4.4-10.9-10.4-13.4c-2.8-1.2-5.6-2.2-8.2-3.9c-2.3-1.5-4.2-4-6.1-6.1
		c-1.1-1.2-2.1-2.4-3.2-3.7c-0.5-0.5-0.9-1-1.2-1.7c-0.2-0.4-0.2-1.3-0.4-1.5c-2.1-2.9-6.2-2.1-7.7-5.6c-0.6-1.3-0.4-2.7-1.2-3.9
		c-0.7-1-2.2-1.6-3.2-2.2c-1.2-0.8-2.2-1.8-3.4-2.6c-2.1-1.4-4.6-2.4-7.1-2.8c-3.2-0.5-5.3-0.1-8.1-1.9c-1.7-1.1-3.2-2.2-5.1-2.5
		c-0.9-0.1-1.3,0.7-1.9-0.3c-0.3-0.5,0.6-2.1,0.8-2.6C20,37.9,22.8,35.7,26.8,35z M90.5,35.6c1.3-0.1,3.7-0.1,4.4-1.5
		c0.8-1.6-1.6-4-2.9-4.6c-2.8-1.1-8.9,2.3-5.7,5.5C87.7,36.4,88.8,35.7,90.5,35.6z"/>
	<path class="st2" d="M90.9,31.5c-1.3-0.5-2.8,1.4-1.1,2c1,0.4,2.9-1.3,1.3-1.8"/>
	<path class="st3" d="M53.2,58.5c-2,0.1-3.6,0-5.3-1.2c-1.7-1.2-2.8-2.9-4.3-4.4c-2.7-2.7-6.5-4.5-10.1-5c-2-0.3-4.1-0.3-6.1-0.8
		c-1.7-0.4-2.9-1.2-4.3-2.1c0.8-0.1,1.7-0.4,2.5-0.6C29.5,44,33,44.9,36.8,45c3.5,0.1,6.9-0.3,10.4,0.7c1,0.3,2,0.4,3,0.7
		c1.5,0.4,3.1,1,4.6,1.5c2.7,1,5.9,2.6,8.7,1.5c-4.3,0.7-7.7-2.4-11.5-3.8c-1.7-0.6-3.5-1-5.2-1.4c-2-0.4-4-0.6-6.1-0.6
		c-3.4,0-6.9,0-10.3-0.4c-1.9-0.2-4.1,0-6,0.1c-2,0.1-6.3,1.9-5-1.7c0.9-2.6,3.7-4.4,6.2-5.2c3.5-1.1,7.5-1.3,11.2-2
		c2.8-0.5,5.7-1.3,8.5-2.1c2.6-0.8,5.4-1,8-2c2.9-1.2,5.9-2.4,8.9-3.3c1.7-0.5,3-2,4.7-2.5c1.1-0.3,3.8-0.2,5,0.2
		c0.4,2-2.3,3.2-3.4,4.4c-1.3,1.5,0,3.7-0.6,5.5c-0.3,0.8-1,1.6-1.2,2.5c-0.3,1-0.5,2-0.9,3c-0.6,1.8-1,3.9-0.6,5.8
		c0.4,1.9,2.1,2.9,0.6,4.6c-1.1,1.3-2.9,2.2-3.8,3.6c-1.1,1.7-0.5,3.7-3,4.3C57.1,59.1,55,58.4,53.2,58.5z M48.3,34.7
		c-1,0.3-2.1-0.2-3.1,0.3c-1.3,0.6-0.4,1.2-1.4,2.1c-0.8,0.7-2.4,0.6-3.3,1.2c1.4,0.1,2.8-0.3,4.1-0.7c1.2-0.4,2.4-0.4,3.5-0.7
		c0.9-0.3,4.3-2.1,2-2.9C49.2,33.6,48.9,34.5,48.3,34.7z"/>
	<path class="st4" d="M151.3,474.4c0,0,0.2-0.1,0.2-0.1c-1.1,0-1.9,0.5-2.9,0.7c-1.1,0.2-2.3,0.2-3.5,0.4c-1.4,0.2-2.9,0.1-4.2,0.5
		c0.6-0.3,1.4-0.3,1.9-0.8c-0.8-0.7-2.2-0.5-3.1-0.7c-1.3-0.2-2.5-0.3-3.8-0.4c-1.6-0.1-3.2-0.3-4.8-0.4c-0.7,0-9.2-0.8-9,0.6
		c-0.1-0.4,0-0.8,0.1-1.1c-0.5-0.1-1.4,0-1.9,0.3c-0.5,0.3-0.5,0.8-0.8,1.2c-0.1-0.8-0.1-1.3-1.2-1.3c-0.8,0-1.2,0.7-1.6,1.2
		c-0.1-0.4,0-0.8,0.3-1.1c-0.4,0-3.9,0.4-3.6,1.1c0.1,0.4,0.5,0.7,0.7,0.9c-1,0.4-2.1,1-3.1,1.5c2.7-0.3,5.5-0.4,8.2-0.7
		c1.3-0.1,2.7-0.3,4.1-0.2c1.3,0.1,2.5,0.7,3.8,0.7c-1.5,0-3.3,0.5-4.8,0c0,0.8-0.2,2-0.7,2.8c0-0.8-0.1-1.6-0.1-2.4
		c-0.6,0.1-1.7,0.3-2.3,0.2c0.3,0.8,0,1.7-0.2,2.4c-0.4-0.4,0.2-2.1-0.4-2.6c-0.7-0.6-2.1,0.4-2.8,0c0,0.9,0,1.8-0.2,2.7
		c-0.4-0.6,0.1-2.1-0.5-2.6c-0.6-0.5-2.3,0.1-3,0.1c0.3,0.6,0.3,2.1,0.1,2.8c-0.3-0.6-0.3-1.8-0.9-2.3c-0.8-0.8-1.6,0.1-2.4-0.1
		c0,0.9,0,1.7-0.3,2.5c-0.3-0.6-0.2-1.6-0.4-2.3c-0.6-0.1-1.2,0.2-1.7,0.4c0,0.7,0.1,1.6-0.3,2.2c-0.1-0.7-0.1-1.4-0.1-2.1
		c-0.9,0-1.7,0.1-2.6,0.3c0,0.5,0.1,1.4-0.1,1.9c0.1-0.6,0-1.6-0.6-1.8c-0.8-0.4-1.8,0.1-2.1,0.9c-0.3,0.9-0.4,1.4-1.2,2.1
		c-0.1,0.1-1.6,1.7-1.2,1.9c0.8,0.4,2.3-0.3,3.1-0.5c1.2-0.3,2.1-0.3,3.3-0.4c0,0.1,0,0.2,0,0.2c1.2,0.1,2.3-0.1,3.4,0.5
		c-0.2-0.3-0.2-0.5-0.2-0.8c2.1-0.3,4.2,0,6.3-0.1c-1.4,0.9-3.5,0-5,1.1c1.2,0,2.8,1.5,4,2c1.9,0.8,6.5,5.2,7.9,2.1
		c0.6-1.3,1.1-2,2.3-2.8c2.1-1.4,4.5-2.3,7.1-2.8c2.5-0.5,5-0.1,7.5-0.5c0.7-0.1,1.5-0.4,2.2-0.6c-0.3,0.4-0.7,0.9-1.3,0.9
		c0.5,0.5,1.1,1.2,1,2c-0.4-0.6-0.6-1.3-1.2-1.6c-0.6-0.3-1.7-0.2-2.4-0.3c1.1,0,1.3,2.5,1.3,3.4c-0.3-1.1-0.9-2.4-2.1-2.9
		c-1.1-0.4-2.2,0.3-3.3,0.2c0.8,0.5,2.4,1.6,2.4,2.7c-0.8-0.7-1.4-1.6-2.5-2.2c-0.7-0.3-2.6-0.3-3.2,0.2c0.9,0.4,2.6,1.2,2.9,2.2
		c-1.2-1.5-3.8-2.6-5.5-1.2c1.1,0,3.3,1.1,3.8,2.1c-0.9-0.9-1.7-1.5-2.9-1.6c-2.7-0.3-3.9,0.9-5,3.2c-0.5,1-0.4,2.5,0.9,1.4
		c0.9-0.8,1.6-2.3,3-2.5c1-0.1,1.2,0.8,1.3,1.6c0.1,0.5,0.1,1.1,0.1,1.5c-0.1,0.6-0.7,1.2-0.4,1.9c1.4-0.1,2.8,0.1,4.2-0.6
		c1.5-0.7,1.5-1.8,2.2-3.1c0-0.1,0-0.1,0,0c0.2,0.4,0.4,0.9,0.5,1.4c2.3-0.4,4.7-0.6,7.1-0.9c1-0.1,2.4-0.2,3.4-0.7
		c1.2-0.6,1.3-1.6,1.9-2.5c0.2,1,0.1,1.3,1,1.4c0.7,0.1,1.6-0.1,2.3-0.2c1.6-0.2,3.1-0.5,4.6-0.8c1.5-0.3,2.9-0.6,4.3-1
		c1.4-0.4,3-0.7,4.2-1.7c0.7-0.6,1.1-1.2,1.5-1.9c0.4-0.8,1.2-1.2,1.6-2c0.3-0.5,0.5-1.3,1.1-1.5c0.6-0.1,1.2,0.3,1.8,0.2
		c0.6-0.1,1.2-0.3,1.8-0.7c2.5-1.7,3.4-4.6,3.8-7.4c0.4-3,1.3-5.9,1.7-8.9c0.1-1.4,0.9-2.8,1.3-4.1c0.5-1.6,0.9-3.3,1.1-5
		c0.5-3.1,0.4-6.1,1.3-9.1c0.3-1,0.7-2.1,1.5-2.9c0.4-0.4,1.1-0.5,1.4-0.8c0.3-0.4,0.4-1.2,0.5-1.6c0.8-0.2,0.8-0.1,0.9-0.9
		c0.1-0.6,0-1.2-0.1-1.8c-0.1-0.8-0.6-2.8-0.3-3.5c0.2-0.4,0.9-0.6,1.2-0.9c0.3-0.4,0.7-0.9,0.9-1.3c0.4-0.8,0.9-2.1,0.4-2.9
		c1.9,0.2-0.7-3.8-1.1-4.2c0.5,0.9,0.8,3.3-0.8,3c-0.8-0.2-1.7-1-2.4-1.4c-0.6-0.3-1.7-0.6-1.9-1.3c1.3,1.3,2.7,3.5,2.6,5.4
		c-0.8,0.1-2.2-1.2-2.8-1.7c-1-0.6-1.9-1.4-2.8-2.1c-0.6-0.5-1.1-0.9-1.8-1.3c-0.7-0.3-1.3-0.7-2-1.2c-0.1,1.1,2.3,3.8,0.4,3.9
		c-1.4,0.1-3.3-1.2-2.6,1.1c0.7,2.3,0.7,5.4,0.4,7.8c-0.3,2.8-0.7,5.7-1.4,8.4c-0.6,2.3-1.7,4.2-2.7,6.4c-0.7,1.6-1.4,3.2-2.3,4.8
		c-0.5,0.9-1.2,2.5-1.9,3.2c0.2,0.2,1.1,1.2,1.2,1.3c-0.6-0.2-1.1-0.7-1.6-1c-0.1,0.8-1.6,3.3-2.4,3.2c0.8,0.4,2.4,1.3,2.6,2.3
		c-0.5-0.3-1.6-1.6-2.3-1.5c-0.5,0.1-2,1.8-2.3,2.3c0.5,0.7,1.4,1,1.9,1.8c-0.7-0.5-1.3-1.1-2.1-1.5c-0.7,1.1-1.6,2.1-2.5,3
		c0.7,0.4,1.5,1.2,2,1.9c-0.6-0.5-1.3-1.2-2-1.4c0,0.1,0,0.2,0,0.3c-0.5,0.2-0.8,1.3-1.1,1.8c0.9,0.4,1.8,1.2,2.5,2
		c-0.7-0.1-1.2-0.7-1.8-0.8c-1.2-0.1-0.6,1.5-1.2,2.2C153.4,473.6,152.1,473.8,151.3,474.4z"/>
	<path class="st4" d="M206.7,441.4c0-1-0.6-2-1-2.9c-0.2-0.4-1.4-4.6-1.4-4.6c-0.6,0.2-3,0.5-2.9,1.3c-0.9,0-1.6-1.1-2.6-0.8
		c0,0.3-0.1,0.5,0.1,0.7c-0.9,0.8-5.2-0.9-6.3-1.4c-0.1,0.5,0,1,0.3,1.3c-1.2-0.8-3-1.6-4.5-1.8c-1.3-0.3-2.6-0.1-4-0.4
		c0.4,0.7,0.6,1.6,0.6,2.4c0,0.4,0,0.8-0.1,1.1c-0.1,0.1-0.5,0.6-0.5,0.7c0.1,1.7-1.7,2.3-2.6,3.5c-0.8,1-1.7,3.1-1.1,4.3
		c1.4-0.9,2.3-2.7,3.8-3.5c-0.3,0.2-0.6,1.2-0.7,1.5c0.9,1,2.2,1.7,3.2,2.5c0.1-0.2,0.3-0.4,0.3-0.7c0.6,0.2,0.2,1,0.2,1.5
		c-0.7,0.1-2.3-1.7-2.9-2.2c-1.1-0.9-1.7-0.4-2.4,0.8c1,1.1,2.5,1.9,3.3,3.2c-0.6-0.3-1.1-1-1.7-1.4c-0.6-0.5-1.4-0.9-2.1-1.3
		c-0.4,0.4-0.9,0.7-1.2,1.2c1,0.9,3.3,2.4,3.7,3.7c-1-1.1-2.9-2.8-4.4-2.9c-0.3,1.3-0.3,1.6,0.6,2.5c0.6,0.6,1.3,1.3,1.7,2
		c-0.7-0.9-1.7-2.2-2.9-2.4c-0.2,0.9,0.2,1.9,0.1,2.9c-0.2,1.2-0.6,2.6-0.9,3.8c-0.7,2.3-1.8,4.6-1.7,7.1c0-0.6,2.8-1.7,3.3-1.6
		c0.4,0,0.7,0.4,0.9,0.4c0.8,0,0.9-0.6,1.4-1.1c1-1,2.5-1.7,3.6-2.7c2.3-2.2,4.4-4.7,6.2-7.3c0.3-0.5,0.9-1.1,1.1-1.7
		c-0.3,0-0.4-0.2-0.6-0.3c0.5-0.7,1-1,1.2-1.8c0.2-0.8,0.5-1.7,0.7-2.5c0.7-2.1,1.9-4.1,4.3-4.1c-0.1,0.5-1,0.9-1.4,1.3
		c-0.6,0.6-1.2,1.4-1.6,2.2c-0.5,0.9-0.8,2-0.9,3c-0.1,0.7,0.1,1.5-0.2,2.1c-0.8,1.4-2.3,2.5-3.3,3.7c-1.1,1.5-2.4,2.8-3.7,4.2
		c-0.9,1-1.9,1.9-2.8,2.9c-0.7,0.7-1.7,2-2.6,2.2c-0.3,0.1,0.7,0.6,0.7,0.6c0.8,0.3,2-0.1,2.8-0.2c1.3-0.2,2.6-0.3,3.8-0.5
		c1.4-0.3,2.8-0.5,4.3-0.8c1.5-0.2,3-0.7,4.5-1.1c0.6-0.2,1.3-0.4,2-0.6c0.2-0.1,2-0.3,2.1-0.3c0,0,0,0,0.1,0
		c-0.1,0.3-0.3,0.6-0.5,0.9c0.1,0,0.2,0.1,0.4,0.1c0.3,0.9,1,1.5,1.9,1.6c1.3,0.3,1.5-0.9,2.5-1.1c-0.1-1.5-7.2-9.4-5.2-10.8
		c0.7,1.4,1.1,2.9,1.9,4.2c0.4,0.6,0.7,1.1,1.1,1.7c0.5,0.7,0.8,1.4,1.4,2c0.4,0.6,0.6,1.3,1.1,1.9c0.5,0.7,1.4,0.7,1.9,1.3
		c0-1,0.4-2,0.9-2.9c0.3-0.5,1.8-2,1.8-0.5c0.9-1.5,2-4.2,0-5.3c-1.7-0.8-3.4,0.4-4.7,1.3c0.2-0.9,2-1.7,2.9-1.8
		c1.2-0.2,2.8,0.9,2-0.9c-0.6-1.3-0.9-1.9-2.4-1.8c-1.4,0.1-2.1,0.7-3.2,1.4c0.9-1.1,3.3-2.5,4.7-1.7c-0.9-0.7-0.8-2.4-1.9-2.8
		c-1.3-0.4-3,0.4-3.8,1.4c1.1-1.1,2.6-1.7,4.2-1.4c-0.2-0.6-1-1.6-1.5-2.2c-0.7-1.1-1.8-0.5-2.8,0c0.3-1,1.7-0.9,1.9-2.1
		C206.7,441.5,206.7,441.4,206.7,441.4z"/>
	<path class="st4" d="M158.3,458.5c-1,0.6-2.3,1.3-3.4,1.6c2,0.5-1,2.6-1.7,3c-2,1.2,0.5,1.8,1.7,2.3c0,0,0-0.1,0-0.2
		c0.7,0,1.1-1,1.5-1.5c0.8-1,1.7-2,2.5-3c0.9-1,1.9-2.4,2.4-3.6C160.4,457,159.1,458,158.3,458.5z"/>
</g>
</svg>
